# xmcd
#
# Track frame offsets:
#	150
#	11031
#	25647
#	38292
#	49278
#	65594
#	78459
#	86739
#	103389
#	115378
#	123717
#	138355
#	155380
#	170243
#	181983
#	190996
#	199678
#	216571
#
# Disc length: 3021 seconds
#
# Revision: 2
# Processed by: cddbd v1.5.2PL0 Copyright (c) Steve Scherf et al.
# Submitted via: audiograbber 1.83.01
#
DISCID=080bcb12
DTITLE=zoclas - alle
DYEAR=1900
DGENRE=
TTITLE0=fragile
TTITLE1=senza tei
TTITLE2=ql
TTITLE3=alizée
TTITLE4=bap
TTITLE5=green day z
TTITLE6=it`s my life
TTITLE7=baila
TTITLE8=bon jovi
TTITLE9=boys
TTITLE10=canaria
TTITLE11=fürstenfeld
TTITLE12=hosen
TTITLE13=love shine
TTITLE14=petri heil
TTITLE15=til
TTITLE16=über den wolken
TTITLE17=indianers
EXTD=
EXTT0=
EXTT1=
EXTT2=
EXTT3=
EXTT4=
EXTT5=
EXTT6=
EXTT7=
EXTT8=
EXTT9=
EXTT10=
EXTT11=
EXTT12=
EXTT13=
EXTT14=
EXTT15=
EXTT16=
EXTT17=
PLAYORDER=
